<?xml version="1.0" encoding="utf-8"?>
<!-- Generator: Adobe Illustrator 25.1.0, SVG Export Plug-In . SVG Version: 6.00 Build 0)  -->
<svg version="1.1" baseProfile="basic" id="Layer_1"
	 xmlns="http://www.w3.org/2000/svg" xmlns:xlink="http://www.w3.org/1999/xlink" x="0px" y="0px" viewBox="0 0 432 432"
	 xml:space="preserve">
<style type="text/css">
	.st0{fill:#FAE053;}
	.st1{fill:#373A36;}
	.st2{fill:#F4633A;}
</style>
<path class="st0" d="M215.76,235.92c19.32,0,35-15.68,35-35s-15.68-35-35-35s-35,15.68-35,35S196.44,235.92,215.76,235.92z"/>
<g>
	<path class="st1" d="M232.26,262.92h-33c-1.38,0-2.5-1.12-2.5-2.5c0-1.38,1.12-2.5,2.5-2.5h33c1.38,0,2.5,1.12,2.5,2.5
		C234.76,261.8,233.64,262.92,232.26,262.92z"/>
	<path class="st1" d="M230.26,271.92h-29c-1.38,0-2.5-1.12-2.5-2.5c0-1.38,1.12-2.5,2.5-2.5h29c1.38,0,2.5,1.12,2.5,2.5
		C232.76,270.8,231.64,271.92,230.26,271.92z"/>
	<path class="st1" d="M228.26,280.92h-25c-1.38,0-2.5-1.12-2.5-2.5c0-1.38,1.12-2.5,2.5-2.5h25c1.38,0,2.5,1.12,2.5,2.5
		C230.76,279.8,229.64,280.92,228.26,280.92z"/>
	<path class="st1" d="M221.97,217.36c0.28-1.03,0.82-1.93,1.52-2.64l-22.58-8.15l32.31-6.73c-1.25-1.46-1.79-3.5-1.25-5.48
		c0.35-1.3,1.11-2.38,2.1-3.15l-24.34-8.79c0.06,0.67,0.01,1.37-0.18,2.06c-0.28,1.03-0.82,1.93-1.52,2.64l22.58,8.15L198.29,202
		c0.96,1.11,1.52,2.57,1.47,4.15c-0.08,1.83-0.97,3.43-2.3,4.47l24.34,8.79C221.74,218.75,221.78,218.05,221.97,217.36z"/>
	<path class="st1" d="M215.76,150.92c-27.61,0-50,22.39-50,50c0,19.67,11.36,36.67,27.87,44.84l2.13,8.16h40l2.13-8.16
		c16.51-8.17,27.87-25.17,27.87-44.84C265.76,173.31,243.37,150.92,215.76,150.92z M233.9,237.69l-3.68,1.82l-1.04,3.97l-0.37,1.44
		l-10.55-1v-12.9l7.17-6.58c-1.64-0.68-2.85-2.06-3.38-3.69l-7.99,7.32c-0.51,0.48-0.8,1.15-0.8,1.85v14l-10.55,1l-0.37-1.43
		l-1.04-3.97l-3.68-1.82c-14.1-6.98-22.86-21.07-22.86-36.78c0-22.61,18.39-41,41-41s41,18.39,41,41
		C256.76,216.63,248,230.72,233.9,237.69z"/>
</g>
<g>
	<path class="st2" d="M233.55,220.48c0.87-3.21-1.05-6.48-4.23-7.35c-2.17-0.59-4.36,0.1-5.83,1.59c-0.7,0.71-1.24,1.61-1.52,2.64
		c-0.19,0.69-0.23,1.39-0.17,2.07c0.04,0.45,0.12,0.9,0.26,1.33c0.53,1.63,1.74,3,3.38,3.69c0.25,0.1,0.5,0.2,0.77,0.27
		C229.41,225.58,232.68,223.66,233.55,220.48z"/>
	<path class="st2" d="M209.73,182.42c-0.21-2.45-1.92-4.61-4.41-5.29c-3.21-0.87-6.48,1.05-7.35,4.23
		c-0.87,3.18,1.05,6.51,4.23,7.35c2.17,0.59,4.36-0.1,5.83-1.59c0.7-0.71,1.24-1.61,1.52-2.64
		C209.74,183.79,209.79,183.09,209.73,182.42z"/>
	<path class="st2" d="M231.97,194.36c-0.54,1.98,0,4.02,1.25,5.48c0.76,0.88,1.78,1.56,2.98,1.87c3.21,0.87,6.48-1.05,7.35-4.23
		c0.87-3.18-1.05-6.48-4.23-7.35c-1.9-0.52-3.82-0.05-5.25,1.08C233.08,191.98,232.32,193.06,231.97,194.36z"/>
	<path class="st2" d="M199.76,206.16c0.06-1.58-0.5-3.04-1.47-4.15c-1.04-1.21-2.56-2-4.29-2.08c-3.33-0.15-6.09,2.43-6.24,5.76
		c-0.12,3.3,2.46,6.08,5.76,6.23c1.48,0.05,2.85-0.43,3.93-1.28C198.79,209.59,199.67,208,199.76,206.16z"/>
</g>
</svg>
